<svg width="38" height="27" viewBox="0 0 38 27" fill="none" xmlns="http://www.w3.org/2000/svg">
<path d="M15.3753 6.42045C15.9936 5.98111 16.996 5.98111 17.6144 6.42045L25.3528 11.9242C26.5885 12.8031 26.588 14.2271 25.3518 15.1054L17.6087 20.6071C16.9903 21.0464 15.9879 21.0464 15.3694 20.6071C14.7511 20.1677 14.7511 19.4554 15.3694 19.0161L21.9968 14.3072C22.6151 13.8679 22.6151 13.1556 21.9968 12.7162L15.3753 8.01144C14.7568 7.5721 14.7568 6.85979 15.3753 6.42045Z" fill="white"/>
<path d="M14.5558 11.396C14.5296 10.6465 15.3072 10.136 15.9846 10.458L20.6465 12.6744C21.3808 13.0234 21.4137 14.0563 20.7031 14.4514L16.2059 16.9523C15.5528 17.3154 14.7466 16.86 14.7205 16.1132L14.5558 11.396Z" fill="white"/>
</svg>
